<?xml version="1.0" standalone="no"?>
<!DOCTYPE svg PUBLIC "-//W3C//DTD SVG 20010904//EN"
 "http://www.w3.org/TR/2001/REC-SVG-20010904/DTD/svg10.dtd">
<svg version="1.0" xmlns="http://www.w3.org/2000/svg"
 width="50.000000pt" height="50.000000pt" viewBox="0 0 50.000000 50.000000"
 preserveAspectRatio="xMidYMid meet">

<g transform="translate(0.000000,50.000000) scale(0.100000,-0.100000)"
fill="#000" stroke="none">
<path d="M203 480 c-13 -5 -23 -16 -23 -24 0 -8 -16 -23 -36 -35 -25 -15 -42
-37 -59 -76 -40 -89 -40 -96 -3 -156 25 -42 33 -65 33 -104 l0 -49 49 -9 c27
-4 55 -6 63 -3 10 4 13 47 13 205 0 191 -1 200 -21 214 l-21 15 22 7 c12 4 33
4 48 0 l27 -7 -22 -11 c-23 -10 -23 -12 -23 -229 0 -139 4 -218 10 -218 6 0
10 4 10 10 0 5 22 12 50 16 36 5 51 12 55 25 4 11 16 19 27 19 20 0 20 4 16
128 -6 156 -20 200 -71 225 -21 9 -37 24 -37 32 0 28 -63 43 -107 25z m-58
-255 c6 -39 6 -39 -9 -15 -8 14 -15 36 -16 50 0 37 17 12 25 -35z m223 -60 c1
-31 -1 -35 -8 -20 -5 11 -8 40 -8 65 0 37 1 41 8 20 4 -14 8 -43 8 -65z"/>
</g>
</svg>
