<?xml version="1.0" standalone="no"?>
<!DOCTYPE svg PUBLIC "-//W3C//DTD SVG 20010904//EN"
 "http://www.w3.org/TR/2001/REC-SVG-20010904/DTD/svg10.dtd">
<svg version="1.0" xmlns="http://www.w3.org/2000/svg"
 width="494.000000pt" height="494.000000pt" viewBox="0 0 494.000000 494.000000"
 preserveAspectRatio="xMidYMid meet">

<g transform="translate(0.000000,494.000000) scale(0.100000,-0.100000)"
fill="#672139" stroke="none">
<path d="M2390 3810 l0 -130 -645 0 -645 0 0 125 c0 143 8 135 -105 112 l-60
-13 -3 -197 -2 -197 1545 0 1545 0 -2 197 -3 198 -78 16 c-42 8 -79 13 -82 11
-3 -3 -5 -61 -5 -129 l0 -123 -645 0 -645 0 0 130 0 130 -85 0 -85 0 0 -130z"/>
<path d="M1615 3360 c-105 -26 -262 -105 -349 -175 -38 -30 -75 -55 -82 -55
-13 0 -16 11 -31 120 l-8 55 -108 3 -107 3 0 -471 0 -471 107 3 107 3 27 130
c14 72 41 166 58 210 62 162 174 296 296 356 64 31 77 34 160 34 106 0 157
-19 229 -85 111 -103 186 -274 231 -532 39 -220 44 -575 10 -763 -55 -311
-198 -529 -377 -576 -96 -26 -260 33 -371 131 -93 84 -182 224 -232 368 l-19
52 -112 0 -111 0 8 -44 c13 -68 64 -193 116 -283 116 -198 261 -341 433 -428
352 -178 679 -68 932 312 l54 81 41 -66 c172 -274 413 -425 654 -408 301 20
588 238 758 573 37 75 81 202 81 237 l0 26 -109 0 -109 0 -17 -52 c-10 -29
-40 -98 -69 -153 -94 -184 -249 -311 -424 -346 -49 -10 -72 -11 -107 -1 -184
49 -322 260 -382 582 -25 132 -24 514 1 685 55 382 174 608 356 676 80 30 184
23 273 -18 85 -40 177 -132 240 -239 59 -101 82 -165 116 -329 l27 -130 107
-3 107 -3 0 471 0 471 -107 -3 -107 -3 -7 -40 c-4 -22 -10 -61 -13 -87 -8 -56
-29 -63 -67 -22 -13 14 -54 46 -91 70 -358 239 -746 197 -1071 -115 l-83 -80
-60 60 c-121 124 -273 219 -414 259 -111 32 -280 36 -385 10z"/>
</g>
</svg>
